PathFileType	4	(X/Y/Z)	/Users/niels/Desktop/University/Third Semester/Perception and Action/Exam/Gymnastics Motion Tracking/Code for Gym Tracking/Analyzed Data/Start Salto/stsalto_bad_id9_1_Sports2D/stsalto_bad_id9_1_Sports2D_px_person00.trc
DataRate	CameraRate	NumFrames	NumMarkers	Units	OrigDataRate	OrigDataStartFrame	OrigNumFrames
29.83050847457627	29.83050847457627	11	22	m	29.83050847457627	88	177
Frame#	Time	Hip			RHip			RKnee			RAnkle			RBigToe			RSmallToe			RHeel			LHip			LKnee			LAnkle			LBigToe			LSmallToe			LHeel			Neck			Head			Nose			RShoulder			RElbow			RWrist			LShoulder			LElbow			LWrist		
		X1	Y1	Z1	X2	Y2	Z2	X3	Y3	Z3	X4	Y4	Z4	X5	Y5	Z5	X6	Y6	Z6	X7	Y7	Z7	X8	Y8	Z8	X9	Y9	Z9	X10	Y10	Z10	X11	Y11	Z11	X12	Y12	Z12	X13	Y13	Z13	X14	Y14	Z14	X15	Y15	Z15	X16	Y16	Z16	X17	Y17	Z17	X18	Y18	Z18	X19	Y19	Z19	X20	Y20	Z20	X21	Y21	Z21	X22	Y22	Z22
88	2.95	0.655498169249019	-0.3917536275687898	0.0	0.6418253046755745	-0.3871403971628742	0.0	0.6379711925670632	-0.5496169353328567	0.0	0.5557916233532576	-0.6889847500119943	0.0	0.580394446808255	-0.753845916368923	0.0	0.5642526622145376	-0.7514587731613112	0.0	0.5349067346109846	-0.6996423152900584	0.0	0.6692776681431928	-0.3982915229024259	0.0	0.6666471953359074	-0.5534647566034113	0.0	0.611019711021328	-0.6940535027534922	0.0	0.6485863021824332	-0.7515637504613721	0.0	0.646149517891267	-0.7458401246173227	0.0	0.5958926231100805	-0.7085303540890224	0.0	0.8329861787485955	-0.4166800654924462	0.0	0.8986270380016462	-0.47771141175218607	0.0	0.8441942305323851	-0.47472836626417897	0.0	0.8226319456906176	-0.41038411286819027	0.0	0.7766709415179761	-0.5006291567681755	0.0	0.7973739421682013	-0.5941571597301697	0.0	0.8231231392860768	-0.4047263287032248	0.0	0.7901309592388358	-0.5077670252000095	0.0	0.8060340651834669	-0.5961063192595473	0.0
89	2.983522727272727	0.6633320975872249	-0.3851181559795749	0.0	0.6494736868049398	-0.380606009969778	0.0	0.6427682896013779	-0.5426328609834505	0.0	0.5497953617723045	-0.6761350704760887	0.0	0.5694311326170365	-0.7433046472366943	0.0	0.5530505984125471	-0.7397142387462692	0.0	0.5270279823056722	-0.685414533704185	0.0	0.6756354540429408	-0.3920089156832251	0.0	0.6707711356001187	-0.5475401614479225	0.0	0.6055267737444592	-0.6848834703464877	0.0	0.6400036608141336	-0.7436939836665059	0.0	0.6383882302691528	-0.7384986011422706	0.0	0.589080575793128	-0.698449575768827	0.0	0.8382523692805148	-0.419375875395479	0.0	0.900501229779457	-0.4850252863486947	0.0	0.846955081921274	-0.4789646482829289	0.0	0.8293740243295313	-0.41234718074749804	0.0	0.7787720511239177	-0.5003231577041967	0.0	0.7979791920194674	-0.5939395817159142	0.0	0.8277354436023698	-0.406328318987674	0.0	0.7895144712824909	-0.5082436931751819	0.0	0.8042806519240984	-0.5950600110666258	0.0
90	3.0170454545454546	0.6708090642713176	-0.37961466166595526	0.0	0.6572264002462136	-0.3748212854071551	0.0	0.6478042691506548	-0.536158558836745	0.0	0.5445341741731906	-0.6627241502981329	0.0	0.5589281424860184	-0.7317727241919055	0.0	0.5426055656159392	-0.7269544074505881	0.0	0.5201109552250576	-0.6704434104114269	0.0	0.6815901655373428	-0.38717580122827	0.0	0.6749095554561239	-0.5420868483495248	0.0	0.5999651555472091	-0.6751060082062534	0.0	0.630673394171709	-0.7355182467137639	0.0	0.6300711536131635	-0.7307471264518267	0.0	0.5822539840718628	-0.6871703185180424	0.0	0.8431181122318286	-0.42184401979699615	0.0	0.9015712159946325	-0.49204430148406947	0.0	0.8492458188374377	-0.48327289879066637	0.0	0.8357442990302814	-0.4140250944047514	0.0	0.7808736323461446	-0.4999461666394725	0.0	0.7983397525282226	-0.5937103745129816	0.0	0.8319287195159303	-0.40788693327230924	0.0	0.7882748139257205	-0.5079275628984404	0.0	0.8024955501249736	-0.5931620929310635	0.0
91	3.050568181818182	0.6781666195371769	-0.3752280790773556	0.0	0.66523546703566	-0.3696597064524926	0.0	0.65302144512487	-0.5300942519220039	0.0	0.5399134138976133	-0.6486060273680204	0.0	0.5492409746690612	-0.7188534809292787	0.0	0.5332536318632733	-0.7128558777096882	0.0	0.5142812375668633	-0.6546930885862094	0.0	0.6874804755419269	-0.3837333635698432	0.0	0.6787779529372281	-0.5369796730959887	0.0	0.5945180663464985	-0.6646196559287523	0.0	0.621039277575738	-0.7268249039462303	0.0	0.6214358065239152	-0.7223188093010179	0.0	0.5756921150087164	-0.6746395769038723	0.0	0.8476532288649659	-0.42411901702948557	0.0	0.9018644620314302	-0.49884249691378724	0.0	0.8509984642253062	-0.4877219629175857	0.0	0.8418832732260634	-0.4154284755299299	0.0	0.7829895246936391	-0.499424082210449	0.0	0.7985070945516932	-0.5934557714707701	0.0	0.8357094406934833	-0.40962020136871935	0.0	0.7865529823693974	-0.5066473623420115	0.0	0.8006866228609983	-0.5905045142853544	0.0
92	3.084090909090909	0.68561932630953	-0.37165316782050367	0.0	0.6735803259518495	-0.36495366562588255	0.0	0.6583667331480236	-0.5242606841031994	0.0	0.5357958632774245	-0.6337525337938433	0.0	0.5404489942710146	-0.7045024640793811	0.0	0.5249981128114612	-0.6973455486946978	0.0	0.509530631969783	-0.6381082316648691	0.0	0.6935230832680399	-0.38131197765153096	0.0	0.6822193399197675	-0.5320268114629986	0.0	0.5893042067408208	-0.6535435686373006	0.0	0.6114655722793044	-0.717489955756951	0.0	0.6126650888514028	-0.7130389101780201	0.0	0.5695906673775045	-0.6612290357542074	0.0	0.8519493743388435	-0.4263492927720794	0.0	0.9015175548842168	-0.5053931533591354	0.0	0.8521433354071618	-0.4923486377690302	0.0	0.8479535143729107	-0.4166255766020193	0.0	0.7851177296761647	-0.4986849840386656	0.0	0.7985743616676968	-0.5931146077014154	0.0	0.8391151254634344	-0.4117639598149149	0.0	0.7845318714410782	-0.5047448458980385	0.0	0.7988932738619845	-0.5874989805673242	0.0
93	3.1176136363636364	0.693157959323772	-0.3684621259101689	0.0	0.6821103995576918	-0.3606379261370541	0.0	0.6636440451765803	-0.5186009993988943	0.0	0.5321876929501654	-0.6184701351417323	0.0	0.5325463713758745	-0.6892443366706942	0.0	0.5177485920599696	-0.6808478375516921	0.0	0.5058682084635533	-0.6209158962277513	0.0	0.6997111676793588	-0.3794117379263653	0.0	0.6850965276920349	-0.5271904096596178	0.0	0.5844317646287497	-0.6422840198377696	0.0	0.602191409510552	-0.7075571208173322	0.0	0.6039159603733555	-0.7029359490739212	0.0	0.5641441328877157	-0.647727503617792	0.0	0.855982743604656	-0.4287118321372351	0.0	0.9007568545092847	-0.511449985646679	0.0	0.8526372091623551	-0.49712236074163885	0.0	0.8539247105564778	-0.41773392371183593	0.0	0.7872065361695099	-0.4977911583317437	0.0	0.7986592815137956	-0.5926067863532363	0.0	0.8422271363968836	-0.4144840240601444	0.0	0.7825263545336484	-0.5029214784513487	0.0	0.7972126795230896	-0.5847117983039665	0.0
94	3.151136363636364	0.7006350895097136	-0.3652796342505726	0.0	0.6905177175407226	-0.35675521876503685	0.0	0.6685306584555121	-0.5131983519147072	0.0	0.5292071551629284	-0.6032020085843697	0.0	0.5254901260339586	-0.6738458499951098	0.0	0.5114203102495173	-0.6640700359174395	0.0	0.5033313635120468	-0.6035578560942767	0.0	0.7059631145147942	-0.37750838250940416	0.0	0.6872827798411806	-0.5226060628978731	0.0	0.579986389746578	-0.6312137609005009	0.0	0.5931815620163564	-0.6970305526814666	0.0	0.5952238944763869	-0.692099951373357	0.0	0.5594929358154755	-0.6348284257467194	0.0	0.8596086457472263	-0.4312918044323651	0.0	0.8999310118992991	-0.5167197325049081	0.0	0.8526011656262505	-0.5018878882312925	0.0	0.8596047256641404	-0.4188936549570436	0.0	0.789208817285159	-0.49695824116920434	0.0	0.7988320977040991	-0.5918355663786982	0.0	0.8452445913591579	-0.4177291605448786	0.0	0.7810257996986362	-0.5016419379310122	0.0	0.7957705114246816	-0.582414665045745	0.0
95	3.184659090909091	0.7079768445601259	-0.36186329529523364	0.0	0.6985714589980514	-0.35333799501459306	0.0	0.6727683405808724	-0.5081241068573095	0.0	0.5269753926555363	-0.5881484471860532	0.0	0.519125879786913	-0.6587463810324354	0.0	0.505880469425536	-0.6474778042125021	0.0	0.5019306663174682	-0.5863231451082546	0.0	0.7123133883280566	-0.3751058023353346	0.0	0.6888008710785989	-0.5184028726827219	0.0	0.5759814319121263	-0.6203205372239025	0.0	0.5841383545066289	-0.6856632279535487	0.0	0.5864942141247462	-0.6804754392636432	0.0	0.5556449002923873	-0.62265117056976	0.0	0.8626819049085465	-0.43403759963315663	0.0	0.8993899465355557	-0.5211559659965667	0.0	0.8523247351086575	-0.5062842673320451	0.0	0.8648193317791337	-0.4202141970713556	0.0	0.7911249594863948	-0.4963746341088741	0.0	0.7990651868438512	-0.5907381541900282	0.0	0.8484444989929179	-0.42119665588281124	0.0	0.7805084048389315	-0.5007918570347114	0.0	0.7946596906352318	-0.5804288054366697	0.0
96	3.2181818181818183	0.7152736783763783	-0.3581108604274665	0.0	0.7062785213298954	-0.3502851711549074	0.0	0.6763236926730803	-0.5033045081939121	0.0	0.5255278419128663	-0.5731528613382555	0.0	0.5132718632410146	-0.6437864611803078	0.0	0.5009581680566656	-0.6310131069187268	0.0	0.5015779345929974	-0.5691997516198559	0.0	0.7189405282529693	-0.3718963766106928	0.0	0.6898967979205232	-0.5145394088142345	0.0	0.5723668341589769	-0.6091995586556171	0.0	0.5747761255677447	-0.6730230495792618	0.0	0.5776483819160741	-0.6678573569786614	0.0	0.5525274159332185	-0.610734806521294	0.0	0.8652079792391639	-0.43681178469031695	0.0	0.8992507909966739	-0.5250144696528725	0.0	0.8520172395881642	-0.5098681532479477	0.0	0.8695222178311658	-0.42176516991752383	0.0	0.7929403370476229	-0.49607872933442343	0.0	0.7992599412644505	-0.5894011528134633	0.0	0.8520431293211981	-0.42452108717892073	0.0	0.7811608540161074	-0.49994406372761613	0.0	0.7938937618859184	-0.5784250509502612	0.0
97	3.2517045454545457	0.7226521258220172	-0.3541015698204896	0.0	0.7137879510206526	-0.3474038981583718	0.0	0.6793458093711047	-0.4985669940660404	0.0	0.5247917560000637	-0.5580268757853903	0.0	0.5079808989869915	-0.6285376713490969	0.0	0.49660646500242783	-0.6144392342083657	0.0	0.5020425004837643	-0.5522207768695386	0.0	0.7259850439072101	-0.36797967511213653	0.0	0.6909321548645593	-0.510833502221205	0.0	0.5691347106268628	-0.5974384228375681	0.0	0.5651774200532803	-0.6588868674119769	0.0	0.5688351436943451	-0.6542011432957622	0.0	0.5501345393817633	-0.5984864410673472	0.0	0.8673794523641213	-0.43944757089177533	0.0	0.8992848755094174	-0.5286489257770076	0.0	0.8515854404700257	-0.5123871835489542	0.0	0.8737540608488794	-0.4235815901363484	0.0	0.794525151743544	-0.4960633170605563	0.0	0.7993157512963414	-0.5880687299210471	0.0	0.8561036069293242	-0.4274816888334016	0.0	0.782801738654576	-0.4987892964267418	0.0	0.7934036182749058	-0.5761948730681025	0.0
98	3.2852272727272727	0.7301077885073443	-0.3500898983908191	0.0	0.7212199670504045	-0.3445570668804743	0.0	0.6820362875023629	-0.49380697722764155	0.0	0.5246785106639863	-0.5428807740531767	0.0	0.5035808298896496	-0.6128403104222601	0.0	0.4929877577782145	-0.5978057572158463	0.0	0.5030442020751044	-0.5357615653226864	0.0	0.7333328071798824	-0.3637761900584959	0.0	0.6922210631945105	-0.5070940775349145	0.0	0.5664242314897973	-0.584992944183501	0.0	0.5558804182291631	-0.6435800334264653	0.0	0.5604910013082095	-0.6398647205240432	0.0	0.5485764492880436	-0.5855985483519289	0.0	0.8694449378936074	-0.44181896917276337	0.0	0.8990559908197355	-0.5323131533135992	0.0	0.8507994108942855	-0.5138854798530336	0.0	0.8775728364675995	-0.4256445383037967	0.0	0.7957071751278105	-0.49637125876683896	0.0	0.7992073969885856	-0.5870151909176495	0.0	0.8605238728391215	-0.43003461112370733	0.0	0.7850667202713553	-0.4973093573523799	0.0	0.7930872204964811	-0.5736827279738779	0.0
